<?xml version="1.0" standalone="no"?>
<!DOCTYPE svg PUBLIC "-//W3C//DTD SVG 20010904//EN"
 "http://www.w3.org/TR/2001/REC-SVG-20010904/DTD/svg10.dtd">
<svg version="1.0" xmlns="http://www.w3.org/2000/svg"
 width="700.000000pt" height="700.000000pt" viewBox="0 0 700.000000 700.000000"
 preserveAspectRatio="xMidYMid meet">
<metadata>
Created by potrace 1.11, written by Peter Selinger 2001-2013
</metadata>
<g transform="translate(0.000000,700.000000) scale(0.100000,-0.100000)"
fill="#000000" stroke="none">
<path d="M670 6993 c-314 -53 -554 -266 -642 -569 l-23 -79 0 -2845 0 -2845
23 -79 c78 -271 277 -470 548 -548 l79 -23 2845 0 2845 0 79 23 c271 78 470
277 548 548 l23 79 0 2845 0 2845 -23 79 c-78 269 -271 464 -542 548 l-75 23
-2830 1 c-1557 1 -2841 -1 -2855 -3z m3219 -1358 c526 -75 923 -342 1136 -764
102 -204 146 -400 146 -656 1 -276 -62 -525 -180 -725 -210 -353 -539 -579
-974 -670 -137 -29 -330 -40 -694 -40 l-322 0 -4 -547 c-4 -585 -4 -589 -55
-690 -27 -52 -111 -137 -160 -162 -99 -50 -258 -66 -368 -37 -110 29 -216 112
-264 206 -52 102 -50 18 -50 1941 0 1898 -2 1820 47 1929 43 96 152 183 272
216 72 19 1329 19 1470 -1z"/>
<path d="M3000 4220 l0 -641 373 3 c356 4 375 5 442 27 235 77 388 273 414
527 34 340 -135 610 -439 701 -45 13 -120 17 -422 20 l-368 5 0 -642z"/>
</g>
</svg>
