<?xml version="1.0" standalone="no"?>
<!DOCTYPE svg PUBLIC "-//W3C//DTD SVG 20010904//EN"
 "http://www.w3.org/TR/2001/REC-SVG-20010904/DTD/svg10.dtd">
<svg version="1.0" xmlns="http://www.w3.org/2000/svg"
 width="260.000000pt" height="260.000000pt" viewBox="0 0 260.000000 260.000000"
 preserveAspectRatio="xMidYMid meet">
<metadata>
Created by potrace 1.11, written by Peter Selinger 2001-2013
</metadata>
<g transform="translate(0.000000,260.000000) scale(0.100000,-0.100000)"
fill="#000000" stroke="none">
<path d="M1136 2369 c-128 -21 -184 -38 -291 -88 -183 -86 -329 -211 -452
-387 -57 -82 -142 -290 -157 -384 -43 -268 -8 -497 110 -719 85 -160 208 -296
354 -392 107 -71 246 -130 360 -155 19 -4 37 -8 40 -9 3 -1 32 -5 65 -9 339
-42 684 81 918 328 494 519 356 1366 -276 1701 -101 53 -218 96 -302 109 -151
24 -242 25 -369 5z m319 -217 c224 -38 431 -174 563 -370 298 -438 125 -1050
-358 -1270 -175 -79 -392 -99 -573 -52 -393 102 -660 455 -651 862 7 341 224
654 541 783 135 55 325 73 478 47z"/>
<path d="M839 1708 c-54 -30 -83 -87 -77 -150 15 -153 201 -202 291 -77 45 63
38 147 -18 204 -51 50 -133 60 -196 23z"/>
<path d="M1605 1714 c-63 -33 -97 -102 -84 -172 11 -53 33 -84 83 -113 54 -30
136 -22 179 18 69 65 75 176 13 239 -43 43 -136 57 -191 28z"/>
<path d="M757 1078 c-16 -10 63 -136 126 -198 175 -175 436 -223 660 -122 111
51 203 132 266 236 59 98 109 89 -502 90 -297 1 -544 -2 -550 -6z"/>
</g>
</svg>
